<svg width="64" height="64" viewBox="0 0 64 64" fill="none" xmlns="http://www.w3.org/2000/svg">
  <defs>
    <linearGradient id="gold" x1="0" y1="0" x2="0" y2="1">
      <stop offset="0%" stop-color="#f8dc80"/>
      <stop offset="50%" stop-color="#d4a017"/>
      <stop offset="100%" stop-color="#9e6e00"/>
    </linearGradient>
    <linearGradient id="crimson" x1="0" y1="0" x2="0" y2="1">
      <stop offset="0%" stop-color="#921111"/>
      <stop offset="100%" stop-color="#5c0a0a"/>
    </linearGradient>
    <linearGradient id="steel" x1="0" y1="0" x2="0" y2="1">
      <stop offset="0%" stop-color="#33373c"/>
      <stop offset="100%" stop-color="#111214"/>
    </linearGradient>
    <linearGradient id="lava" x1="0" y1="0" x2="1" y2="1">
      <stop offset="0%" stop-color="#cc5500"/>
      <stop offset="100%" stop-color="#7a2a00"/>
    </linearGradient>
  </defs>
  <rect x="2" y="2" width="60" height="60" rx="14" fill="url(#crimson)" stroke="#5c0a0a" stroke-width="2"/>
  <rect x="5" y="5" width="54" height="54" rx="11" fill="url(#steel)"/>
  <path d="M14 44 L14 22 L20 28 L24 18 L32 26 L40 18 L44 28 L50 22 L50 44 Z" fill="url(#gold)" stroke="#7a5400" stroke-width="1"/>
  <rect x="14" y="44" width="36" height="6" rx="2" fill="url(#gold)" stroke="#7a5400" stroke-width="1"/>
  <circle cx="20" cy="28" r="2.5" fill="#c01818"/>
  <circle cx="32" cy="26" r="3" fill="#c01818"/>
  <circle cx="44" cy="28" r="2.5" fill="#c01818"/>
  <path d="M18 48 L22 48 L20 50 Z" fill="#5c0a0a"/>
  <path d="M30 48 L34 48 L32 50 Z" fill="#5c0a0a"/>
  <path d="M42 48 L46 48 L44 50 Z" fill="#5c0a0a"/>
  <path d="M16 20 L14 22 L12 18" stroke="url(#lava)" stroke-width="1.5" fill="none" opacity="0.7"/>
  <path d="M50 22 L48 20 L52 18" stroke="url(#lava)" stroke-width="1.5" fill="none" opacity="0.7"/>
</svg>
